<mxfile host="app.diagrams.net"><diagram name="HBC ER Diagram" id="2aea2df41d10"><mxGraphModel dx="1420" dy="850" grid="1" gridSize="10" guides="1" tooltips="1" connect="1" arrows="1" fold="1" page="1" pageScale="1" pageWidth="827" pageHeight="1169" math="0" shadow="0"><root><mxCell id="0" /><mxCell id="1" parent="0" /><mxCell id="7893a79f428f" value="Users&#10;user_id PK&#10;email&#10;phone&#10;password_hash&#10;role_id FK&#10;language_preference&#10;is_verified&#10;created_at&#10;last_login" style="shape=swimlane;startSize=30;fillColor=#dae8fc;fontSize=12;" vertex="1" parent="1"><mxGeometry x="40" y="40" width="260" height="160" as_="geometry" /></mxCell><mxCell id="0cac3cd8383a" value="Roles&#10;role_id PK&#10;name&#10;permissions JSON" style="shape=swimlane;startSize=30;fillColor=#dae8fc;fontSize=12;" vertex="1" parent="1"><mxGeometry x="40" y="220" width="260" height="160" as_="geometry" /></mxCell><mxCell id="8720a1698afd" value="UserBusinessRole&#10;user_id FK&#10;business_id FK&#10;role_type&#10;assigned_by FK&#10;created_at" style="shape=swimlane;startSize=30;fillColor=#dae8fc;fontSize=12;" vertex="1" parent="1"><mxGeometry x="40" y="400" width="260" height="160" as_="geometry" /></mxCell><mxCell id="819879ef33ac" value="Businesses&#10;business_id PK&#10;owner_id FK&#10;name&#10;category_id FK&#10;plan_id FK&#10;address&#10;location_coords&#10;is_approved&#10;credits_balance" style="shape=swimlane;startSize=30;fillColor=#dae8fc;fontSize=12;" vertex="1" parent="1"><mxGeometry x="40" y="580" width="260" height="160" as_="geometry" /></mxCell><mxCell id="fd55e65f0cc7" value="BusinessLocalized&#10;localized_id PK&#10;business_id FK&#10;language_code&#10;translated_name&#10;translated_description" style="shape=swimlane;startSize=30;fillColor=#dae8fc;fontSize=12;" vertex="1" parent="1"><mxGeometry x="40" y="760" width="260" height="160" as_="geometry" /></mxCell><mxCell id="38104ccac2e7" value="BusinessCategory&#10;category_id PK&#10;name&#10;icon" style="shape=swimlane;startSize=30;fillColor=#dae8fc;fontSize=12;" vertex="1" parent="1"><mxGeometry x="40" y="940" width="260" height="160" as_="geometry" /></mxCell><mxCell id="fc9f39ed267c" value="BusinessHours&#10;hours_id PK&#10;business_id FK&#10;day_of_week&#10;open_time&#10;close_time&#10;is_closed" style="shape=swimlane;startSize=30;fillColor=#dae8fc;fontSize=12;" vertex="1" parent="1"><mxGeometry x="40" y="1120" width="260" height="160" as_="geometry" /></mxCell><mxCell id="8c9e2f48d7ad" value="BusinessMedia&#10;media_id PK&#10;business_id FK&#10;type&#10;url&#10;caption&#10;is_primary" style="shape=swimlane;startSize=30;fillColor=#dae8fc;fontSize=12;" vertex="1" parent="1"><mxGeometry x="340" y="40" width="260" height="160" as_="geometry" /></mxCell><mxCell id="45425b443ead" value="Leads&#10;lead_id PK&#10;business_id FK&#10;user_id FK&#10;message&#10;status&#10;created_at" style="shape=swimlane;startSize=30;fillColor=#dae8fc;fontSize=12;" vertex="1" parent="1"><mxGeometry x="340" y="220" width="260" height="160" as_="geometry" /></mxCell><mxCell id="6ec728e9bd7e" value="LeadPricing&#10;pricing_id PK&#10;category_id FK&#10;region&#10;price_per_lead&#10;valid_from" style="shape=swimlane;startSize=30;fillColor=#dae8fc;fontSize=12;" vertex="1" parent="1"><mxGeometry x="340" y="400" width="260" height="160" as_="geometry" /></mxCell><mxCell id="908ab923fdd1" value="CreditTransactions&#10;transaction_id PK&#10;business_id FK&#10;amount&#10;type&#10;payment_id FK&#10;balance_snapshot&#10;timestamp" style="shape=swimlane;startSize=30;fillColor=#dae8fc;fontSize=12;" vertex="1" parent="1"><mxGeometry x="340" y="580" width="260" height="160" as_="geometry" /></mxCell><mxCell id="0280bff4e906" value="PricingPlans&#10;plan_id PK&#10;name&#10;price&#10;lead_credits&#10;features JSON&#10;is_active" style="shape=swimlane;startSize=30;fillColor=#dae8fc;fontSize=12;" vertex="1" parent="1"><mxGeometry x="340" y="760" width="260" height="160" as_="geometry" /></mxCell><mxCell id="f8220c12d7c3" value="Subscriptions&#10;subscription_id PK&#10;business_id FK&#10;plan_id FK&#10;start_date&#10;end_date&#10;auto_renew&#10;status" style="shape=swimlane;startSize=30;fillColor=#dae8fc;fontSize=12;" vertex="1" parent="1"><mxGeometry x="340" y="940" width="260" height="160" as_="geometry" /></mxCell><mxCell id="30999306730b" value="Payments&#10;payment_id PK&#10;user_id FK&#10;amount&#10;method&#10;gateway&#10;status&#10;invoice_url&#10;timestamp" style="shape=swimlane;startSize=30;fillColor=#dae8fc;fontSize=12;" vertex="1" parent="1"><mxGeometry x="340" y="1120" width="260" height="160" as_="geometry" /></mxCell><mxCell id="15de4d894f82" value="AddOnPurchases&#10;purchase_id PK&#10;business_id FK&#10;addon_type&#10;quantity&#10;campaign_id FK&#10;created_at" style="shape=swimlane;startSize=30;fillColor=#dae8fc;fontSize=12;" vertex="1" parent="1"><mxGeometry x="640" y="40" width="260" height="160" as_="geometry" /></mxCell><mxCell id="ad303c9358a7" value="Events&#10;event_id PK&#10;business_id FK&#10;title&#10;description&#10;start_time&#10;end_time&#10;is_recurring" style="shape=swimlane;startSize=30;fillColor=#dae8fc;fontSize=12;" vertex="1" parent="1"><mxGeometry x="640" y="220" width="260" height="160" as_="geometry" /></mxCell><mxCell id="3bbceaef6ada" value="Offers&#10;offer_id PK&#10;business_id FK&#10;title&#10;description&#10;discount_code&#10;valid_until&#10;is_festival_offer" style="shape=swimlane;startSize=30;fillColor=#dae8fc;fontSize=12;" vertex="1" parent="1"><mxGeometry x="640" y="400" width="260" height="160" as_="geometry" /></mxCell><mxCell id="24e0c9bca29b" value="FestivalCampaigns&#10;campaign_id PK&#10;name&#10;start_date&#10;end_date&#10;featured_businesses JSON" style="shape=swimlane;startSize=30;fillColor=#dae8fc;fontSize=12;" vertex="1" parent="1"><mxGeometry x="640" y="580" width="260" height="160" as_="geometry" /></mxCell><mxCell id="293cdb0be9ac" value="Appointments&#10;appointment_id PK&#10;business_id FK&#10;user_id FK&#10;slot_id FK&#10;status&#10;notes" style="shape=swimlane;startSize=30;fillColor=#dae8fc;fontSize=12;" vertex="1" parent="1"><mxGeometry x="640" y="760" width="260" height="160" as_="geometry" /></mxCell><mxCell id="74927d30e4dd" value="AppointmentSlots&#10;slot_id PK&#10;business_id FK&#10;start_time&#10;end_time&#10;max_capacity&#10;is_booked" style="shape=swimlane;startSize=30;fillColor=#dae8fc;fontSize=12;" vertex="1" parent="1"><mxGeometry x="640" y="940" width="260" height="160" as_="geometry" /></mxCell><mxCell id="f76da6f35621" value="Products&#10;product_id PK&#10;business_id FK&#10;name&#10;description&#10;price&#10;stock&#10;category" style="shape=swimlane;startSize=30;fillColor=#dae8fc;fontSize=12;" vertex="1" parent="1"><mxGeometry x="640" y="1120" width="260" height="160" as_="geometry" /></mxCell><mxCell id="752e563ab47a" value="Orders&#10;order_id PK&#10;user_id FK&#10;business_id FK&#10;total_amount&#10;status&#10;created_at" style="shape=swimlane;startSize=30;fillColor=#dae8fc;fontSize=12;" vertex="1" parent="1"><mxGeometry x="940" y="40" width="260" height="160" as_="geometry" /></mxCell><mxCell id="9a3a1bddfc3b" value="OrderItems&#10;order_item_id PK&#10;order_id FK&#10;product_id FK&#10;quantity&#10;unit_price" style="shape=swimlane;startSize=30;fillColor=#dae8fc;fontSize=12;" vertex="1" parent="1"><mxGeometry x="940" y="220" width="260" height="160" as_="geometry" /></mxCell><mxCell id="839a1369b55c" value="HinduCalendar&#10;date_id PK&#10;date&#10;is_muhurta&#10;significance&#10;recommended_activities" style="shape=swimlane;startSize=30;fillColor=#dae8fc;fontSize=12;" vertex="1" parent="1"><mxGeometry x="940" y="400" width="260" height="160" as_="geometry" /></mxCell><mxCell id="627a39a5a6b4" value="DonationCauses&#10;cause_id PK&#10;business_id FK&#10;title&#10;description&#10;target_amount&#10;verification_status" style="shape=swimlane;startSize=30;fillColor=#dae8fc;fontSize=12;" vertex="1" parent="1"><mxGeometry x="940" y="580" width="260" height="160" as_="geometry" /></mxCell><mxCell id="b136b2938741" value="Referrals&#10;referral_id PK&#10;referrer_id FK&#10;referee_id FK&#10;reward_status&#10;credits_awarded" style="shape=swimlane;startSize=30;fillColor=#dae8fc;fontSize=12;" vertex="1" parent="1"><mxGeometry x="940" y="760" width="260" height="160" as_="geometry" /></mxCell><mxCell id="6f306e516a45" value="Notifications&#10;notification_id PK&#10;user_id FK&#10;title&#10;message&#10;type&#10;is_read&#10;created_at" style="shape=swimlane;startSize=30;fillColor=#dae8fc;fontSize=12;" vertex="1" parent="1"><mxGeometry x="940" y="940" width="260" height="160" as_="geometry" /></mxCell><mxCell id="379085ef2fc7" value="AuditLogs&#10;log_id PK&#10;user_id FK&#10;action&#10;entity_type&#10;entity_id&#10;old_values&#10;new_values&#10;timestamp" style="shape=swimlane;startSize=30;fillColor=#dae8fc;fontSize=12;" vertex="1" parent="1"><mxGeometry x="940" y="1120" width="260" height="160" as_="geometry" /></mxCell><mxCell id="2a72cbd43acd" value="Languages&#10;language_id PK&#10;code&#10;name&#10;is_active" style="shape=swimlane;startSize=30;fillColor=#dae8fc;fontSize=12;" vertex="1" parent="1"><mxGeometry x="1240" y="40" width="260" height="160" as_="geometry" /></mxCell></root></mxGraphModel></diagram></mxfile>